# xmcd CD database file
#
# Track frame offsets:
#	150
#	24582
#	47125
#	66338
#	86996
#	106816
#	129109
#	147067
#	167313
#	193192
#	218061
#	237681
#	254441
#	273048
#
# Disc length: 3916 seconds
#
# Revision: 2
# Processed by: cddbd v1.5.2PL0 Copyright (c) Steve Scherf et al.
# Submitted via: CDex 1.70beta2
#
DISCID=c50f4a0e
DTITLE=佚名 - 絕對發燒 [伍]
DYEAR=2006
DGENRE=Pop
TTITLE0=蒙古人
TTITLE1=昨日重現
TTITLE2=你看你看月亮的臉
TTITLE3=昨晚你已嫁給誰
TTITLE4=童話
TTITLE5=但願人長久
TTITLE6=情深意長
TTITLE7=萍聚
TTITLE8=暖昧
TTITLE9=月光光
TTITLE10=英雄
TTITLE11=海韻
TTITLE12=白月光
TTITLE13=大城小事
EXTD=?穡癒癒翹簫瞿繙癒繞職繪繞?繚瞽??5癒繚 \n??癒癒??瞿繙?繙?? \n??癒癒簣簸瞿繙DSD \n繒竄癒癒?職瞿繙?簾?繫糧穠?竅 \n糧繹簞疆?簣翹瓣瞿繙2006/2/6\n簞??繫簣穢?繳 YEAR: 2006
EXTT0=
EXTT1=
EXTT2=
EXTT3=
EXTT4=
EXTT5=
EXTT6=
EXTT7=
EXTT8=
EXTT9=
EXTT10=
EXTT11=
EXTT12=
EXTT13=
PLAYORDER=
